<?xml version="1.0" standalone="no"?>
<!DOCTYPE svg PUBLIC "-//W3C//DTD SVG 20010904//EN"
 "http://www.w3.org/TR/2001/REC-SVG-20010904/DTD/svg10.dtd">
<svg version="1.0" xmlns="http://www.w3.org/2000/svg"
 width="571.000000pt" height="571.000000pt" viewBox="0 0 571.000000 571.000000"
 preserveAspectRatio="xMidYMid meet">
<metadata>
Created by potrace 1.14, written by Peter Selinger 2001-2017
</metadata>
<g transform="translate(0.000000,571.000000) scale(0.100000,-0.100000)"
fill="#000000" stroke="none">
<path d="M1426 5363 c-4 -5 -12 -8 -17 -8 -5 0 -8 -3 -6 -6 1 -4 -7 -16 -17
-28 -11 -12 -15 -21 -10 -21 5 0 -1 -7 -13 -15 -13 -9 -20 -22 -17 -30 4 -8
-1 -18 -10 -21 -9 -3 -13 -10 -10 -15 3 -5 0 -9 -7 -9 -7 0 -9 -3 -6 -7 4 -3
-1 -12 -11 -20 -9 -8 -11 -11 -4 -8 11 6 12 3 3 -14 -7 -11 -16 -21 -21 -21
-6 0 -10 -5 -10 -11 0 -6 -9 -24 -21 -40 -11 -16 -17 -34 -13 -40 4 -8 3 -9
-4 -5 -11 6 -16 -6 -9 -19 1 -2 -7 -10 -17 -18 -12 -9 -16 -19 -11 -27 6 -9 4
-11 -5 -5 -10 6 -12 4 -7 -8 3 -9 2 -16 -2 -14 -5 1 -10 -2 -12 -8 -1 -5 -9
-16 -16 -23 -7 -8 -11 -18 -7 -23 3 -5 -2 -12 -10 -15 -9 -3 -13 -10 -10 -15
3 -5 0 -9 -6 -9 -7 0 -9 -7 -6 -16 3 -8 2 -13 -3 -9 -5 3 -19 -14 -31 -37 -11
-24 -32 -60 -46 -82 -14 -21 -20 -35 -12 -31 7 4 3 -2 -8 -12 -27 -23 -53 -69
-32 -58 7 4 3 -2 -9 -14 -21 -20 -27 -34 -24 -54 1 -5 -3 -6 -9 -2 -9 5 -15
-9 -7 -18 1 -2 -10 -18 -25 -36 -16 -18 -28 -39 -28 -47 0 -8 -4 -14 -9 -14
-6 0 -8 -9 -6 -19 3 -15 0 -18 -12 -14 -12 5 -15 2 -10 -10 3 -9 3 -17 -2 -17
-5 0 -17 -12 -27 -27 -13 -20 -13 -25 -3 -18 10 6 9 5 -1 -5 -9 -8 -23 -30
-31 -48 -7 -17 -17 -32 -21 -32 -5 0 -8 -8 -8 -18 0 -9 -10 -23 -21 -31 -18
-10 -19 -15 -8 -22 10 -6 10 -9 2 -9 -14 0 -43 -41 -47 -65 -1 -9 -10 -25 -19
-35 -9 -11 -14 -20 -10 -20 4 0 -2 -7 -13 -16 -10 -8 -13 -13 -7 -9 9 4 11 1
7 -9 -3 -9 -10 -13 -15 -11 -5 3 -11 -6 -15 -20 -3 -14 -11 -25 -16 -25 -6 0
-4 -8 3 -17 8 -9 9 -14 3 -10 -14 8 -57 -50 -48 -65 4 -6 3 -8 -4 -4 -6 4 -23
-19 -42 -59 -17 -36 -51 -95 -76 -132 -61 -91 -59 -87 -43 -78 7 5 3 -4 -9
-20 -17 -22 -20 -30 -10 -37 10 -6 9 -8 -3 -8 -9 0 -21 -10 -28 -22 -6 -13
-20 -36 -30 -53 -10 -16 -16 -33 -14 -37 2 -5 -1 -8 -7 -8 -7 0 -9 -7 -6 -16
3 -8 2 -13 -3 -10 -5 3 -15 -2 -22 -11 -12 -14 -12 -16 1 -9 12 6 11 4 -1 -6
-9 -7 -14 -19 -11 -27 3 -8 0 -11 -6 -7 -5 3 -13 -1 -16 -10 -4 -10 -2 -13 7
-9 6 4 3 -1 -8 -10 -11 -9 -19 -21 -17 -26 1 -5 -3 -9 -10 -9 -6 0 -9 -3 -6
-6 4 -3 -2 -14 -13 -25 -10 -10 -19 -26 -19 -35 0 -9 -10 -24 -23 -35 -16 -13
-18 -19 -7 -19 12 0 11 -3 -3 -11 -9 -6 -15 -14 -12 -20 4 -5 1 -9 -5 -9 -6 0
-8 -5 -5 -10 3 -6 -1 -13 -9 -16 -9 -3 -16 -14 -16 -23 0 -9 -5 -23 -11 -31
-9 -12 -10 -11 -4 5 4 13 3 16 -3 10 -32 -32 -58 -238 -33 -255 6 -4 19 -29
26 -50 9 -29 30 -58 38 -53 6 3 8 2 5 -3 -8 -12 48 -110 61 -107 5 2 8 -8 5
-21 -3 -17 3 -30 19 -43 13 -10 22 -24 19 -31 -2 -6 1 -12 6 -12 5 0 13 -11
16 -25 4 -16 11 -23 18 -19 7 5 8 3 3 -5 -4 -8 1 -18 13 -27 12 -8 19 -22 17
-34 -2 -11 1 -23 7 -26 7 -5 8 -2 3 6 -6 9 -4 11 4 6 7 -5 10 -15 7 -23 -3 -8
-1 -11 4 -8 5 3 13 -7 16 -22 9 -32 28 -55 39 -45 5 4 5 1 1 -6 -5 -8 1 -23
15 -39 13 -13 24 -32 24 -41 0 -9 19 -48 42 -87 62 -106 94 -175 88 -185 -4
-6 3 -10 14 -10 11 0 23 -5 27 -12 4 -7 3 -8 -4 -4 -7 4 -3 -9 9 -28 12 -20
23 -36 26 -36 2 0 1 5 -3 12 -4 7 -3 8 4 4 6 -4 9 -13 5 -21 -3 -8 0 -15 7
-15 6 0 8 -4 5 -10 -3 -5 -1 -10 4 -10 6 0 11 -6 11 -14 0 -8 7 -22 16 -30 8
-9 12 -16 7 -16 -4 -1 3 -8 17 -16 14 -8 17 -13 8 -10 -15 5 -15 1 4 -29 13
-18 27 -31 33 -28 5 4 7 3 3 -2 -4 -4 -2 -15 5 -23 10 -13 9 -15 -3 -8 -9 4
-8 1 3 -7 9 -8 17 -20 17 -26 0 -7 4 -9 10 -6 6 3 7 -1 4 -9 -4 -11 0 -16 12
-16 16 0 17 -2 4 -10 -14 -9 -7 -14 13 -11 5 1 6 -3 3 -8 -8 -13 4 -42 15 -35
5 3 6 -2 3 -10 -3 -8 4 -24 16 -36 11 -11 18 -25 15 -30 -4 -6 4 -14 17 -19
13 -6 17 -10 9 -10 -8 -1 -4 -9 10 -22 13 -11 18 -18 12 -14 -20 10 -15 -2 12
-29 14 -14 26 -36 27 -50 1 -13 6 -22 10 -20 4 3 8 -2 8 -11 0 -9 5 -13 10
-10 6 4 9 3 8 -2 -4 -12 25 -73 34 -73 5 0 8 -7 8 -15 0 -9 7 -18 16 -22 13
-5 13 -7 2 -14 -10 -7 -9 -9 5 -9 10 0 16 -4 13 -9 -3 -5 5 -25 18 -44 13 -19
22 -38 18 -41 -3 -3 0 -6 6 -6 7 0 12 -6 12 -14 0 -8 5 -18 12 -22 7 -5 8 -3
3 6 -5 8 -4 11 3 6 6 -4 9 -13 6 -20 -3 -7 1 -20 9 -27 7 -8 15 -18 18 -24 2
-5 8 -9 13 -7 5 2 6 -4 3 -12 -3 -8 -3 -17 1 -21 4 -4 7 -12 7 -18 1 -7 7 -11
14 -9 7 1 10 -2 6 -8 -7 -12 39 -83 48 -74 4 4 5 -3 2 -15 -2 -13 1 -21 11
-21 8 0 14 -5 14 -11 0 -5 -6 -7 -12 -4 -7 4 -2 -3 12 -15 14 -13 24 -29 22
-36 -2 -8 2 -14 8 -14 5 0 10 -7 10 -16 0 -8 4 -13 9 -9 5 3 13 0 17 -6 4 -8
3 -9 -4 -5 -7 4 -12 3 -12 -3 0 -5 5 -13 10 -16 6 -4 8 -10 6 -14 -3 -4 4 -14
15 -21 10 -8 19 -21 19 -29 0 -7 8 -20 18 -27 9 -7 17 -16 17 -21 1 -4 5 -18
9 -31 6 -19 10 -21 22 -11 10 8 14 8 14 1 0 -7 7 -9 17 -5 10 4 14 2 10 -4 -3
-5 1 -10 9 -10 9 0 13 6 9 16 -3 11 -1 10 10 -3 11 -15 17 -16 28 -8 8 7 16 9
19 7 11 -12 48 -14 42 -3 -5 8 -1 9 12 4 30 -13 84 -16 84 -5 0 5 5 9 11 9 5
0 8 -3 6 -7 -3 -5 17 -8 43 -8 27 0 46 4 42 9 -3 6 3 6 14 2 28 -12 74 -15 68
-5 -8 13 10 11 24 -3 8 -8 12 -8 12 -1 0 10 20 10 68 -1 15 -3 20 -1 16 6 -5
8 -1 9 12 4 32 -13 84 -16 84 -4 0 6 8 7 18 3 33 -13 53 -14 46 -3 -5 8 -1 9
12 4 32 -13 84 -16 84 -4 0 6 7 5 17 -3 14 -12 16 -12 8 0 -6 11 -4 13 11 7
28 -12 74 -15 68 -5 -8 13 10 11 24 -3 9 -9 12 -9 12 0 0 9 5 10 18 4 9 -5 26
-8 37 -6 34 6 69 6 93 0 15 -3 20 -1 16 6 -5 8 -1 9 12 4 30 -13 84 -16 84 -5
0 5 5 9 11 9 5 0 8 -3 6 -7 -3 -5 17 -8 43 -8 27 0 46 4 42 9 -3 6 3 6 14 2
28 -12 74 -15 68 -5 -8 13 10 11 24 -3 8 -8 12 -8 12 -1 0 10 20 10 68 -1 15
-3 20 -1 16 6 -5 8 -1 9 12 4 32 -13 84 -16 84 -4 0 6 8 7 18 3 33 -13 53 -14
46 -3 -5 8 -1 9 12 4 32 -13 84 -16 84 -4 0 6 7 5 17 -3 14 -12 16 -12 8 0 -6
11 -4 13 11 7 28 -12 74 -15 68 -5 -8 13 10 11 24 -3 9 -9 12 -9 12 0 0 9 5
10 18 4 9 -5 26 -8 37 -6 34 6 69 6 93 0 15 -3 20 -1 16 6 -5 8 -1 9 12 4 30
-13 84 -16 84 -5 0 5 5 9 11 9 5 0 8 -3 6 -7 -3 -5 17 -8 43 -8 27 0 46 4 42
9 -3 6 3 6 14 2 28 -12 74 -15 68 -5 -8 13 10 11 24 -3 8 -8 12 -8 12 -1 0 10
20 10 68 -1 15 -3 20 -1 16 6 -5 8 -1 9 12 4 32 -13 84 -16 84 -4 0 6 8 7 18
3 33 -13 53 -14 46 -3 -5 8 -1 9 12 4 32 -13 84 -16 84 -4 0 6 7 5 17 -3 11
-10 14 -10 9 -1 -9 15 6 16 22 0 7 -7 12 -8 12 -2 0 6 14 9 31 6 25 -4 30 -2
24 9 -7 12 -6 12 7 1 14 -11 19 -10 32 9 8 12 13 26 11 30 -3 4 2 10 11 13 9
4 14 9 11 12 -3 4 1 13 9 21 8 9 13 22 9 30 -4 11 -1 13 11 9 13 -5 15 -2 11
14 -3 10 -2 19 2 18 19 -2 22 4 10 19 -8 9 -9 14 -3 10 11 -7 46 28 37 37 -4
3 -1 6 6 6 7 0 9 5 6 10 -3 6 -1 10 5 10 6 0 9 4 6 9 -3 5 1 11 9 15 8 3 15
12 15 21 0 8 6 15 13 15 8 0 7 4 -3 10 -13 9 -8 14 11 12 8 -1 23 48 20 61 -1
5 3 6 8 2 6 -3 13 6 17 20 3 14 11 22 17 18 6 -4 8 0 4 11 -4 10 -1 19 8 22 8
4 15 12 15 19 0 8 12 27 26 44 14 17 23 35 20 40 -3 5 1 11 9 15 8 3 15 10 15
16 0 6 -6 8 -12 5 -7 -4 -4 1 7 10 11 9 19 21 18 26 -2 5 2 9 8 9 6 0 8 7 5
16 -3 8 -2 13 2 11 4 -3 16 7 27 22 19 26 19 26 0 11 -11 -8 -5 2 13 23 17 21
32 44 32 52 0 8 5 15 11 15 5 0 7 5 4 10 -3 6 -1 10 6 10 7 0 9 3 6 7 -4 3 3
18 15 31 13 14 16 22 8 18 -8 -4 -7 -1 4 8 10 8 15 19 12 25 -4 5 -1 13 5 17
8 4 9 3 5 -4 -15 -25 3 -10 20 15 17 27 17 28 -2 13 -10 -8 -5 1 11 19 17 19
23 30 15 26 -12 -7 -12 -5 1 11 18 22 33 55 30 67 -1 5 3 6 8 3 12 -8 41 32
41 56 0 10 5 18 11 18 5 0 8 4 5 9 -3 5 2 12 11 15 15 6 15 8 3 16 -13 8 -12
10 2 10 12 0 15 5 11 17 -4 11 -3 14 5 9 7 -4 12 -1 12 8 0 9 5 16 11 16 5 0
7 5 4 10 -3 6 -1 10 5 10 6 0 8 5 5 10 -3 6 -1 10 5 10 7 0 10 7 6 15 -3 8 0
14 6 12 7 -1 12 4 13 11 0 7 7 17 15 22 11 7 11 10 2 10 -10 0 -10 3 0 14 7 8
15 12 18 11 3 -2 6 5 7 15 1 11 11 29 22 41 11 12 17 29 14 38 -4 12 -3 13 5
3 7 -10 26 17 71 105 35 65 74 133 87 151 16 20 20 32 12 32 -10 0 -10 2 1 9
8 5 10 14 6 21 -5 8 -4 11 2 7 10 -6 18 3 22 28 2 6 9 14 17 18 8 5 12 12 9
16 -2 5 4 16 15 26 11 10 20 24 20 32 0 7 6 13 13 13 8 0 7 4 -3 10 -13 8 -12
10 3 10 10 0 15 5 12 10 -3 6 -3 10 2 10 12 0 33 51 26 63 -3 6 -1 7 4 4 10
-6 18 3 22 28 2 6 9 14 17 18 8 5 12 13 8 18 -3 6 3 17 15 25 12 8 21 22 21
31 0 9 8 22 18 30 10 9 11 11 2 7 -10 -5 -9 -1 3 14 11 12 16 26 11 33 -4 7
-3 10 3 6 6 -4 17 1 24 10 12 14 12 16 -1 8 -10 -5 -9 -1 3 13 11 11 16 26 12
32 -3 6 -1 9 6 8 7 -2 24 19 37 47 18 38 24 65 23 115 -2 90 -3 100 -13 100
-5 0 -6 5 -2 11 3 6 -7 23 -23 38 -16 15 -28 32 -25 39 2 7 -1 12 -7 12 -6 0
-11 7 -11 16 0 8 -4 13 -8 10 -4 -2 -9 4 -9 16 -1 11 -13 30 -27 43 -28 26
-34 40 -13 30 6 -4 5 -1 -3 7 -8 7 -16 20 -18 27 -2 8 -11 21 -20 29 -9 7 -11
10 -4 7 11 -6 11 -3 0 14 -7 12 -16 21 -21 21 -4 0 -5 5 -2 10 3 6 1 10 -4 10
-6 0 -11 7 -11 16 0 8 -4 12 -10 9 -6 -3 -7 1 -4 9 4 9 -1 18 -10 22 -9 3 -16
15 -16 25 0 10 -5 19 -11 19 -5 0 -7 5 -4 10 3 6 -1 13 -9 16 -9 3 -14 10 -11
14 8 12 -6 41 -16 34 -5 -3 -9 2 -9 10 0 9 -5 16 -12 16 -6 0 -8 3 -5 7 4 3
-3 18 -15 32 -16 17 -17 21 -4 11 10 -8 -2 17 -26 55 -25 39 -68 114 -95 167
-27 54 -53 95 -56 91 -4 -3 -7 1 -7 11 0 9 -4 14 -10 11 -5 -3 -7 0 -4 8 3 8
0 18 -7 23 -8 5 -10 3 -4 -7 5 -8 4 -11 0 -6 -5 4 -10 17 -12 29 -4 28 -30 68
-44 68 -6 0 -7 5 -4 11 4 6 -1 17 -11 25 -11 9 -12 12 -4 8 13 -7 13 -5 1 9
-7 9 -17 14 -22 11 -5 -3 -6 2 -3 10 3 9 1 16 -5 16 -6 0 -11 9 -11 21 0 13
-4 18 -12 13 -6 -4 -8 -3 -4 4 3 6 -1 18 -10 26 -8 9 -12 16 -7 16 4 0 -1 7
-12 16 -11 8 -19 17 -17 19 6 12 1 26 -7 20 -6 -3 -8 4 -6 15 2 13 -1 20 -11
20 -8 0 -12 5 -9 10 3 6 1 10 -5 10 -6 0 -8 5 -5 10 3 6 1 10 -5 10 -6 0 -8 5
-5 10 3 6 0 13 -9 16 -8 3 -12 12 -9 20 3 9 -2 14 -13 14 -16 0 -17 2 -4 10
13 8 12 10 -3 10 -10 0 -15 5 -12 10 9 15 -34 82 -47 74 -6 -4 -8 -3 -5 3 3 5
0 21 -8 36 -7 14 -10 29 -7 33 4 4 1 4 -5 0 -7 -4 -13 -2 -13 4 0 6 -4 9 -8 6
-5 -3 -9 1 -9 9 0 8 4 12 9 9 16 -10 7 6 -23 40 -18 21 -27 40 -23 47 5 9 2
10 -10 6 -9 -4 -14 -3 -11 2 8 14 -16 61 -28 54 -6 -3 -7 -1 -3 6 7 11 -17 44
-26 36 -3 -3 -5 2 -5 10 0 8 5 11 10 8 6 -3 2 5 -9 19 -10 14 -23 23 -28 20
-5 -3 -7 -1 -4 4 8 13 -10 56 -21 49 -5 -3 -13 0 -17 6 -4 8 -3 9 4 5 17 -10
15 9 -2 24 -8 6 -12 19 -9 27 4 11 2 14 -5 9 -7 -4 -12 -1 -12 9 0 9 -4 14 -8
11 -4 -2 -9 5 -9 17 -1 12 -7 23 -13 25 -5 2 -10 10 -10 18 0 8 -4 14 -10 14
-5 0 -10 9 -10 21 0 11 -4 17 -10 14 -6 -3 -10 3 -10 15 0 12 -4 18 -10 15 -6
-4 -10 5 -10 19 0 14 -3 26 -8 26 -4 0 -13 15 -21 33 -8 17 -23 40 -35 50 -11
10 -15 16 -8 12 11 -6 12 -3 3 14 -7 11 -14 21 -17 21 -3 0 -2 -5 2 -12 4 -6
3 -8 -4 -5 -5 4 -9 15 -8 24 2 10 -1 22 -6 28 -5 5 -19 23 -33 39 -18 23 -27
27 -37 18 -8 -6 -19 -7 -27 -3 -7 5 -25 6 -39 4 -44 -7 -46 -7 -76 1 -15 4
-25 3 -23 -1 3 -4 -5 -8 -18 -8 -13 0 -22 2 -20 5 2 3 -16 5 -40 5 -24 0 -42
-2 -40 -5 2 -3 -7 -5 -20 -5 -13 0 -21 3 -18 8 2 4 -3 7 -12 7 -9 0 -14 -4
-11 -8 6 -10 -30 -9 -40 1 -10 10 -26 9 -20 -1 6 -10 -30 -9 -40 1 -11 10 -26
8 -19 -2 3 -5 0 -13 -6 -17 -7 -4 -9 -3 -6 3 9 15 -18 24 -31 11 -6 -6 -12 -6
-16 1 -4 6 -12 11 -17 11 -6 0 -8 -4 -4 -9 3 -5 0 -13 -6 -17 -7 -4 -9 -3 -6
3 9 15 -18 24 -31 11 -6 -6 -12 -6 -16 1 -4 6 -12 11 -17 11 -6 0 -8 -4 -4 -9
3 -5 0 -13 -6 -17 -7 -4 -9 -3 -6 3 9 15 -18 24 -31 11 -6 -6 -12 -6 -16 1 -4
6 -12 11 -17 11 -6 0 -8 -4 -4 -9 3 -5 0 -13 -6 -17 -7 -4 -9 -3 -5 4 9 15
-15 21 -38 10 -10 -6 -16 -6 -13 -1 3 4 -14 8 -38 8 -24 0 -42 -2 -40 -5 2 -3
-7 -5 -20 -5 -13 0 -21 3 -18 8 2 4 -3 7 -12 7 -9 0 -14 -4 -10 -9 3 -6 -7 -6
-27 0 -40 11 -40 11 -35 2 3 -5 -5 -8 -18 -8 -13 0 -22 2 -20 5 2 3 -16 5 -40
5 -24 0 -42 -2 -40 -5 2 -3 -7 -5 -20 -5 -13 0 -21 3 -18 8 2 4 -3 7 -12 7 -9
0 -14 -4 -10 -9 3 -6 -7 -6 -27 0 -40 11 -40 11 -35 2 3 -5 -5 -8 -18 -8 -13
0 -22 2 -20 5 2 3 -16 5 -40 5 -24 0 -41 -4 -38 -8 3 -5 -4 -4 -15 2 -12 6
-23 7 -26 2 -7 -10 -31 -9 -42 2 -11 10 -26 8 -19 -2 3 -5 0 -13 -6 -17 -7 -4
-9 -3 -6 3 9 15 -18 24 -31 11 -6 -6 -12 -6 -16 1 -4 6 -12 11 -17 11 -6 0 -8
-4 -4 -9 3 -5 0 -13 -6 -17 -7 -4 -9 -3 -6 3 9 15 -18 24 -31 11 -6 -6 -12 -6
-16 1 -4 6 -12 11 -17 11 -6 0 -8 -4 -4 -9 3 -5 0 -13 -6 -17 -7 -4 -9 -3 -6
3 9 15 -18 24 -31 11 -6 -6 -12 -6 -16 1 -4 6 -12 11 -17 11 -6 0 -8 -4 -4 -9
3 -5 0 -13 -6 -17 -7 -4 -9 -3 -6 3 4 6 0 14 -9 17 -22 8 -26 8 -19 -3 3 -6
-7 -6 -27 0 -40 11 -40 11 -35 2 3 -5 -5 -8 -18 -8 -13 0 -22 2 -20 5 2 3 -16
5 -40 5 -24 0 -42 -2 -40 -5 2 -3 -7 -5 -20 -5 -13 0 -21 3 -20 6 3 4 -44 3
-100 -3 -6 -1 -23 2 -39 6 -15 4 -25 3 -23 -1 3 -4 -5 -8 -18 -8 -13 0 -22 2
-20 5 2 3 -16 5 -40 5 -24 0 -42 -2 -40 -5 2 -3 -7 -5 -20 -5 -13 0 -21 3 -18
8 2 4 -3 7 -12 7 -9 0 -14 -4 -11 -8 6 -10 -30 -9 -40 1 -10 10 -26 9 -20 -1
6 -10 -30 -9 -40 1 -11 10 -26 8 -19 -2 3 -5 0 -13 -6 -17 -7 -4 -9 -3 -6 3 9
15 -18 24 -31 11 -6 -6 -12 -6 -16 1 -4 6 -12 11 -17 11 -6 0 -8 -4 -4 -9 3
-5 0 -13 -6 -17 -7 -4 -9 -3 -6 3 9 15 -18 24 -31 11 -6 -6 -12 -6 -16 1 -4 6
-12 11 -17 11 -6 0 -8 -4 -4 -9 3 -5 0 -13 -6 -17 -7 -4 -9 -3 -6 3 9 15 -18
24 -31 11 -6 -6 -12 -6 -16 1 -4 6 -12 11 -17 11 -6 0 -8 -4 -4 -9 3 -5 0 -13
-6 -17 -7 -4 -9 -3 -5 4 9 15 -15 21 -38 10 -10 -6 -16 -6 -13 -1 3 4 -14 8
-38 8 -24 0 -42 -2 -40 -5 2 -3 -7 -5 -20 -5 -13 0 -21 3 -18 8 2 4 -2 7 -10
7 -7 0 -17 -3 -21 -7z m284 -259 c19 -1 39 4 43 10 6 7 7 5 4 -6 -3 -9 0 -19
8 -22 9 -3 12 0 9 9 -4 10 0 13 17 10 13 -3 27 1 32 8 6 8 7 7 4 -5 -3 -9 -1
-19 6 -21 17 -6 38 3 31 14 -3 5 2 6 10 3 9 -3 13 -10 10 -15 -3 -5 2 -6 11
-3 13 5 13 9 3 23 -12 14 -11 15 5 2 9 -7 17 -10 17 -6 0 5 9 0 20 -10 19 -17
20 -17 14 -2 -5 15 -3 16 20 7 15 -5 26 -6 26 0 0 5 11 7 25 4 15 -3 25 0 25
7 0 6 9 1 20 -12 17 -21 19 -21 13 -4 -6 20 -6 20 16 1 19 -17 21 -17 15 -3
-5 15 -3 16 20 7 15 -5 26 -6 26 0 0 5 11 7 25 4 15 -3 25 0 25 7 0 6 9 1 20
-12 17 -21 19 -21 13 -4 -6 20 -6 20 16 1 19 -17 21 -17 15 -3 -5 15 -3 16 20
7 15 -5 26 -6 26 0 0 5 11 7 25 4 15 -3 25 0 25 7 0 6 9 1 20 -12 17 -21 19
-21 13 -4 -6 20 -6 20 16 1 19 -17 21 -17 15 -3 -5 15 -3 16 20 7 15 -5 26 -6
26 0 0 5 11 7 25 4 16 -3 25 0 25 8 0 7 7 3 15 -9 14 -21 52 -22 39 -2 -3 5 2
6 10 3 9 -3 13 -10 10 -15 -3 -5 2 -6 11 -3 13 5 13 9 3 22 -11 13 -11 14 2 6
21 -13 83 -13 93 0 6 7 7 5 4 -6 -3 -9 0 -19 8 -22 9 -3 12 0 9 9 -4 10 0 13
17 10 13 -3 27 1 32 8 6 8 7 7 4 -5 -3 -9 -1 -19 6 -21 17 -6 38 3 31 14 -3 5
2 6 10 3 9 -3 13 -10 10 -15 -3 -5 2 -6 11 -3 13 5 13 9 3 22 -11 13 -11 14 2
6 21 -13 83 -13 93 0 6 7 7 5 4 -6 -3 -9 0 -19 8 -22 9 -3 12 0 9 9 -4 10 0
13 17 10 13 -3 27 1 32 8 6 8 7 7 4 -5 -3 -9 -1 -19 6 -21 17 -6 38 3 31 14
-3 5 2 6 10 3 9 -3 13 -10 10 -15 -3 -5 2 -6 11 -3 13 5 13 9 3 22 -11 13 -11
14 2 6 21 -13 83 -13 93 0 6 7 7 5 4 -6 -3 -9 0 -19 8 -22 9 -3 12 0 9 9 -4
10 0 13 17 10 13 -3 27 1 32 8 6 8 7 7 4 -5 -3 -9 -1 -19 6 -21 17 -6 38 3 31
14 -3 5 2 6 10 3 9 -3 13 -10 10 -15 -3 -5 2 -6 11 -3 13 5 13 9 3 22 -11 13
-11 14 2 6 21 -13 83 -13 93 0 6 7 7 5 4 -6 -3 -9 0 -19 8 -22 9 -3 12 0 9 9
-4 10 0 13 17 10 13 -3 27 1 32 8 6 8 7 7 4 -5 -3 -9 -1 -19 6 -21 17 -6 38 3
31 14 -3 5 2 6 10 3 9 -3 13 -10 10 -15 -3 -5 2 -6 11 -3 13 5 13 9 3 22 -11
13 -11 14 2 6 21 -13 83 -13 93 0 6 7 7 5 4 -6 -3 -9 0 -19 8 -22 9 -3 12 0 9
9 -4 10 0 13 17 10 13 -3 27 1 32 8 6 8 7 7 4 -5 -3 -9 -1 -19 6 -21 17 -6 38
3 31 14 -3 5 2 6 10 3 9 -3 13 -10 10 -15 -3 -5 2 -6 11 -3 13 5 13 9 3 23
-12 14 -11 15 5 2 9 -7 17 -10 17 -6 0 5 9 0 20 -10 19 -17 20 -17 14 -2 -5
15 -3 16 20 7 15 -5 26 -6 26 0 0 5 11 7 25 4 15 -3 25 0 25 7 0 6 9 1 20 -12
17 -21 19 -21 13 -4 -6 20 -6 20 16 1 19 -17 21 -17 15 -3 -5 15 -3 16 20 7
18 -6 26 -6 26 1 0 6 6 7 17 0 12 -6 20 -5 29 6 9 14 11 12 10 -8 -1 -16 7
-27 27 -37 24 -12 26 -16 15 -30 -10 -12 -10 -14 0 -8 7 4 12 1 12 -8 0 -9 5
-16 10 -16 6 0 10 -5 10 -11 0 -5 -5 -7 -12 -3 -7 4 -8 3 -4 -4 4 -6 14 -8 22
-5 14 5 15 3 4 -18 -13 -23 -12 -23 5 -9 10 8 16 10 12 3 -4 -6 -3 -14 3 -18
5 -3 15 -16 20 -28 11 -21 11 -21 -4 -3 -9 11 -16 16 -16 10 0 -12 56 -75 61
-69 3 2 6 -10 7 -28 2 -18 7 -34 12 -35 6 -2 8 -8 4 -13 -3 -5 0 -8 8 -7 8 2
13 -7 13 -22 0 -16 7 -26 18 -28 15 -3 16 -7 6 -18 -10 -12 -9 -13 5 -8 19 7
23 -21 4 -30 -7 -3 -3 -3 8 -1 14 4 24 0 27 -9 4 -11 1 -13 -11 -10 -10 3 -7
0 5 -8 12 -7 23 -17 25 -23 2 -5 7 -9 12 -7 5 2 3 -4 -4 -13 -11 -13 -10 -15
6 -9 16 6 17 5 6 -7 -10 -11 -8 -17 10 -32 13 -10 18 -16 12 -13 -6 3 -11 -1
-11 -8 0 -8 6 -12 14 -9 7 3 13 -2 13 -11 0 -9 5 -16 10 -16 6 0 10 -9 10 -20
0 -11 5 -20 11 -20 7 0 9 -9 6 -21 -5 -17 -3 -18 10 -7 14 11 15 9 11 -18 -3
-24 -1 -31 9 -27 8 3 13 -2 13 -12 0 -12 5 -15 16 -11 14 5 15 4 4 -9 -10 -12
-9 -16 5 -21 13 -6 14 -9 3 -16 -9 -7 -7 -9 8 -5 21 4 24 -2 24 -50 0 -13 5
-23 11 -23 5 0 7 6 3 13 -5 8 -2 8 9 -2 18 -15 23 -26 7 -16 -5 3 -10 1 -10
-4 0 -6 5 -11 11 -11 5 0 7 -4 4 -10 -3 -5 1 -10 9 -10 12 0 14 -5 7 -23 -7
-17 -6 -24 4 -24 7 0 11 7 8 16 -4 13 -3 13 5 2 6 -8 8 -20 5 -28 -4 -9 3 -16
18 -20 22 -6 22 -7 3 -14 -18 -7 -18 -8 0 -8 12 -1 16 -6 12 -17 -4 -10 -2
-13 6 -8 8 5 9 2 5 -10 -4 -11 -3 -15 4 -10 8 4 9 -1 4 -17 -7 -22 -7 -23 10
-9 16 13 18 13 13 0 -3 -8 2 -21 11 -28 9 -8 10 -11 4 -7 -7 3 -13 1 -13 -4 0
-6 7 -11 15 -11 8 0 15 -5 15 -11 0 -5 -5 -7 -12 -3 -7 4 -8 3 -4 -5 5 -8 12
-9 20 -2 8 7 12 5 13 -7 4 -51 9 -65 25 -70 15 -4 24 -27 19 -54 -2 -12 14 -9
28 5 11 10 12 8 3 -8 -11 -22 8 -50 24 -37 5 4 6 3 2 -2 -4 -5 -2 -16 5 -25
11 -14 10 -14 -6 -2 -9 8 -20 12 -22 9 -3 -3 6 -11 19 -18 14 -7 28 -20 31
-28 5 -13 3 -13 -12 -1 -17 13 -17 13 0 -7 9 -11 14 -25 10 -29 -5 -5 0 -4 9
3 14 12 16 10 10 -10 -4 -19 -3 -21 9 -11 12 10 15 8 15 -7 0 -10 -4 -16 -8
-14 -4 3 -5 -2 -2 -10 3 -9 12 -16 19 -16 8 0 17 -5 21 -12 4 -6 3 -8 -4 -4
-13 8 -10 -18 6 -36 6 -8 8 -19 4 -24 -4 -4 1 -3 10 4 14 12 16 10 11 -10 -3
-16 -2 -19 5 -10 7 10 11 6 15 -16 3 -16 13 -36 21 -45 8 -8 12 -17 9 -21 -4
-3 -1 -6 5 -6 7 0 12 -5 12 -11 0 -5 -5 -7 -12 -3 -7 4 -8 3 -4 -5 4 -6 12 -8
18 -5 7 5 9 0 5 -15 -5 -19 -3 -20 10 -9 14 11 16 10 11 -15 -4 -21 -2 -25 8
-17 9 9 12 5 10 -14 -2 -18 1 -23 12 -19 12 5 12 2 2 -18 -12 -22 -12 -23 4
-10 14 12 16 12 10 -4 -5 -13 -4 -16 4 -11 7 4 12 2 12 -3 0 -6 -6 -11 -12
-12 -7 0 -3 -4 9 -9 15 -6 21 -15 17 -25 -5 -11 -2 -14 10 -9 9 4 16 3 15 -2
-4 -22 2 -45 10 -40 5 3 8 -2 7 -12 0 -10 5 -16 14 -14 10 1 9 -3 -5 -14 -15
-12 -16 -15 -3 -11 24 8 52 -25 35 -43 -10 -10 -8 -12 7 -6 17 6 17 5 5 -11
-9 -11 -10 -14 -1 -9 7 4 12 1 12 -8 0 -9 4 -16 9 -16 5 0 12 -7 15 -16 6 -15
4 -15 -11 -3 -16 13 -17 12 -4 -4 8 -10 20 -16 28 -13 8 3 12 2 8 -3 -3 -5 1
-12 7 -15 7 -3 2 -3 -12 0 -16 3 -20 2 -12 -3 6 -5 19 -18 28 -29 8 -10 12
-13 8 -5 -5 10 -3 12 5 7 9 -6 9 -11 -1 -24 -11 -13 -11 -15 4 -10 22 9 30 -2
15 -20 -8 -10 -8 -13 -1 -9 7 4 15 0 18 -9 3 -8 2 -12 -3 -9 -5 3 -12 1 -16
-5 -3 -5 -1 -10 4 -10 6 0 11 -5 11 -11 0 -5 -4 -7 -10 -4 -5 3 -10 1 -10 -5
0 -6 -5 -8 -12 -4 -10 6 -10 5 -1 -8 13 -15 8 -28 -11 -28 -6 0 -4 5 4 10 9 6
10 10 3 10 -16 0 -26 -17 -13 -25 6 -4 8 -11 4 -16 -3 -5 -10 -7 -15 -4 -5 4
-9 1 -9 -5 0 -6 -4 -8 -10 -5 -6 3 -7 -1 -3 -10 5 -13 7 -14 14 -3 7 10 9 10
9 0 0 -7 -10 -17 -22 -22 -13 -5 -17 -9 -10 -9 6 -1 12 -5 12 -11 0 -5 -6 -7
-14 -4 -8 3 -17 0 -22 -7 -4 -8 -3 -10 4 -5 7 4 12 3 12 -3 0 -5 -4 -11 -10
-13 -5 -1 -11 -13 -13 -26 -2 -12 -9 -28 -17 -35 -10 -10 -11 -9 -5 2 6 10 4
12 -4 7 -7 -4 -11 -15 -9 -24 1 -10 -10 -35 -24 -56 -15 -22 -25 -43 -23 -47
3 -4 -3 -5 -14 -2 -10 3 -22 0 -25 -6 -4 -6 -1 -9 7 -5 8 3 14 -1 14 -10 0 -8
-4 -13 -9 -10 -4 3 -8 -2 -8 -11 0 -10 -5 -13 -12 -9 -7 4 -8 3 -4 -4 4 -7 3
-12 -3 -12 -5 0 -8 -9 -6 -20 2 -11 -1 -22 -6 -25 -5 -4 -7 -11 -4 -16 4 -5
-2 -6 -11 -2 -13 5 -16 3 -11 -9 7 -20 -3 -31 -17 -18 -8 6 -12 3 -13 -11 -1
-11 2 -17 7 -14 6 3 7 -1 4 -9 -3 -9 -10 -14 -14 -11 -13 8 -29 -23 -32 -62
-1 -7 -5 -10 -9 -8 -4 3 -10 -2 -13 -11 -3 -8 -10 -13 -14 -10 -5 3 -9 -1 -9
-9 0 -8 3 -12 7 -10 3 2 6 -5 6 -15 0 -11 -2 -17 -4 -15 -3 2 -13 0 -23 -6
-14 -7 -18 -17 -15 -35 4 -22 3 -24 -10 -13 -12 10 -13 9 -8 -5 4 -11 2 -16
-7 -14 -10 2 -14 -8 -14 -34 0 -32 -2 -35 -18 -26 -17 9 -17 7 -6 -14 11 -21
11 -22 -5 -9 -14 12 -16 12 -10 -4 6 -14 4 -16 -7 -10 -11 7 -11 5 1 -10 9
-11 10 -16 3 -11 -12 7 -18 -5 -14 -27 1 -5 -4 -5 -10 -1 -17 10 -30 -18 -16
-35 10 -12 9 -13 -2 -6 -11 6 -13 4 -8 -9 5 -13 1 -19 -13 -23 -11 -3 -17 -9
-14 -14 3 -5 0 -9 -7 -9 -8 0 -8 -4 1 -15 11 -13 10 -14 -5 -9 -12 5 -16 4
-12 -3 4 -6 0 -13 -8 -17 -8 -3 -15 -11 -15 -17 0 -8 6 -7 18 2 15 13 16 12 3
-4 -8 -10 -20 -16 -28 -13 -9 4 -11 2 -6 -7 13 -21 13 -41 0 -28 -15 15 -24
14 -24 -4 0 -8 5 -11 11 -8 6 4 -6 -11 -26 -32 -31 -32 -35 -42 -26 -58 8 -15
7 -18 -3 -12 -9 6 -10 3 -5 -10 6 -16 4 -16 -11 -4 -9 8 -14 9 -10 3 4 -7 1
-17 -7 -23 -8 -7 -12 -20 -9 -30 3 -12 -2 -20 -16 -24 -12 -3 -21 -11 -21 -19
0 -10 3 -9 10 2 6 9 10 10 10 3 0 -6 -5 -15 -10 -18 -6 -4 -8 -11 -5 -16 3 -5
0 -6 -8 -3 -8 3 -14 -2 -15 -11 -1 -8 -3 -22 -4 -30 -1 -8 -7 -15 -15 -15 -7
0 -13 -5 -13 -11 0 -5 -5 -7 -12 -3 -7 4 -8 3 -4 -5 5 -7 13 -9 20 -4 7 4 1
-2 -12 -13 -16 -14 -22 -27 -17 -35 6 -8 4 -11 -7 -7 -8 4 -15 0 -15 -8 0 -7
5 -11 11 -8 6 3 2 -2 -8 -10 -11 -9 -17 -16 -13 -16 5 0 2 -6 -5 -14 -7 -8
-16 -12 -20 -9 -5 2 -8 0 -8 -6 0 -5 6 -11 13 -14 7 -3 2 -9 -13 -15 -14 -6
-19 -11 -12 -11 7 -1 10 -6 7 -11 -4 -6 -11 -7 -17 -4 -6 4 -8 -1 -3 -16 5
-15 4 -20 -4 -16 -10 7 -15 -8 -14 -41 1 -7 -3 -10 -8 -7 -5 3 -14 2 -20 -2
-8 -4 -7 -9 2 -15 11 -7 11 -9 1 -9 -7 0 -10 -4 -7 -10 4 -6 -1 -7 -11 -3 -14
5 -16 2 -12 -15 5 -16 2 -22 -10 -22 -15 0 -15 -2 -2 -10 13 -8 12 -10 -2 -10
-10 0 -17 -3 -17 -7 3 -19 -2 -33 -12 -33 -5 0 -7 5 -3 12 5 7 3 8 -5 4 -9 -6
-8 -13 6 -28 13 -15 14 -19 3 -16 -9 2 -14 -3 -12 -11 3 -12 0 -12 -13 -1 -13
11 -14 10 -9 -5 6 -14 4 -16 -7 -10 -11 7 -11 5 1 -10 8 -10 10 -16 3 -12 -6
4 -14 3 -18 -3 -3 -5 -1 -10 5 -10 6 0 9 -4 5 -10 -3 -5 -12 -7 -19 -4 -8 3
-17 0 -22 -7 -4 -7 -3 -10 4 -5 6 3 13 2 17 -4 3 -5 -1 -10 -9 -10 -9 0 -16
-9 -16 -21 0 -11 -4 -17 -10 -14 -6 3 -7 -1 -4 -9 4 -9 0 -18 -9 -22 -9 -3
-13 -14 -10 -27 4 -18 3 -19 -6 -7 -9 13 -11 12 -11 -3 0 -10 -4 -15 -10 -12
-5 3 -10 2 -10 -4 0 -5 6 -12 13 -14 7 -3 5 -6 -5 -6 -11 -1 -15 -6 -12 -15 3
-8 0 -17 -5 -21 -6 -3 -9 -11 -6 -16 3 -5 0 -6 -8 -3 -8 3 -18 0 -23 -7 -5 -8
-3 -10 7 -4 11 7 12 6 2 -7 -7 -8 -9 -19 -5 -23 4 -5 1 -5 -6 -1 -7 4 -20 2
-29 -6 -14 -11 -15 -10 -9 12 4 14 4 20 -1 14 -10 -14 -44 -15 -60 -1 -12 9
-14 7 -12 -9 2 -15 -26 -21 -43 -11 -15 10 -21 9 -28 -3 -9 -13 -10 -13 -11 0
-1 8 -1 19 0 23 1 5 -3 5 -9 2 -6 -4 -9 -13 -7 -19 3 -7 -1 -13 -9 -13 -8 0
-12 3 -9 5 11 11 -36 34 -48 24 -12 -10 -18 -12 -38 -12 -5 0 -7 -5 -3 -11 3
-6 -6 -3 -22 7 -15 11 -25 14 -21 7 4 -6 1 -13 -5 -16 -18 -6 -39 3 -32 14 3
5 -3 6 -12 2 -13 -5 -15 -3 -9 8 7 11 6 12 -6 3 -17 -14 -50 -15 -66 -1 -9 6
-18 5 -30 -4 -9 -8 -18 -13 -20 -11 -10 7 -23 0 -17 -9 3 -6 -6 -3 -22 7 -15
11 -25 14 -21 7 4 -6 1 -13 -5 -16 -18 -6 -39 3 -32 14 3 5 -3 6 -12 2 -13 -5
-15 -3 -9 8 7 11 6 12 -6 3 -17 -14 -50 -15 -66 -1 -9 6 -18 5 -30 -4 -9 -8
-18 -13 -20 -11 -10 7 -23 0 -17 -9 3 -6 -6 -3 -22 7 -15 11 -25 14 -21 7 4
-6 1 -13 -5 -16 -18 -6 -39 3 -32 14 3 5 -3 6 -12 2 -13 -5 -15 -3 -9 8 7 11
6 12 -6 3 -17 -14 -50 -15 -66 -1 -9 6 -18 5 -30 -4 -9 -8 -18 -13 -20 -11
-10 7 -23 0 -17 -9 3 -6 -6 -3 -22 7 -15 11 -25 14 -21 7 4 -6 1 -13 -5 -16
-18 -6 -39 3 -32 14 3 5 -3 6 -12 2 -13 -5 -15 -3 -9 8 7 11 6 12 -6 3 -17
-14 -50 -15 -66 -1 -9 6 -17 6 -25 -1 -13 -10 -18 -12 -39 -12 -5 0 -7 -5 -3
-11 3 -6 -6 -3 -22 7 -15 11 -25 14 -21 7 4 -6 1 -13 -5 -16 -18 -6 -39 3 -32
14 3 5 -3 6 -12 2 -13 -5 -15 -3 -9 8 7 11 6 12 -6 3 -17 -14 -50 -15 -66 -1
-9 6 -18 5 -30 -4 -9 -8 -18 -13 -20 -11 -10 7 -23 0 -17 -9 3 -6 -6 -3 -22 7
-15 11 -25 14 -21 8 4 -7 1 -14 -6 -16 -17 -7 -38 2 -32 13 4 5 -2 6 -11 2
-13 -5 -15 -3 -9 8 7 11 6 12 -6 3 -17 -14 -50 -15 -66 -1 -9 6 -17 6 -25 -1
-13 -10 -18 -12 -39 -12 -5 0 -7 -5 -3 -11 3 -6 -6 -3 -22 7 -15 11 -25 14
-21 7 4 -6 1 -13 -5 -16 -18 -6 -39 3 -32 14 3 5 -3 6 -12 2 -13 -5 -15 -3 -9
8 7 11 6 12 -6 3 -17 -14 -50 -15 -66 -1 -9 6 -18 5 -30 -4 -9 -8 -18 -13 -20
-11 -10 7 -23 0 -17 -9 3 -6 -6 -3 -22 7 -15 11 -25 14 -21 7 4 -6 1 -13 -5
-16 -18 -6 -39 3 -32 14 3 5 -3 6 -12 2 -13 -5 -15 -3 -9 8 7 11 6 12 -6 3
-17 -14 -50 -15 -67 -1 -8 6 -17 5 -29 -4 -9 -8 -18 -13 -20 -11 -10 7 -23 0
-17 -9 3 -6 -6 -3 -22 7 -15 11 -25 14 -21 7 4 -6 1 -13 -5 -16 -18 -6 -39 3
-32 14 3 5 -3 6 -12 2 -13 -5 -15 -3 -9 8 7 11 6 12 -6 3 -17 -14 -50 -15 -66
-1 -9 6 -18 5 -30 -4 -9 -8 -18 -13 -20 -11 -10 7 -23 0 -17 -9 3 -6 -6 -3
-22 7 -15 11 -25 14 -21 8 4 -7 0 -14 -8 -18 -8 -3 -17 -1 -20 4 -4 6 -17 10
-31 10 -13 0 -24 5 -24 11 0 5 6 7 13 4 6 -4 2 2 -11 12 -14 12 -21 25 -17 35
4 9 1 19 -6 24 -8 5 -10 3 -4 -7 11 -19 -6 -2 -34 35 -17 23 -19 31 -9 38 11
6 10 8 0 8 -8 0 -10 5 -6 12 5 8 2 9 -11 4 -14 -5 -16 -4 -7 7 9 11 5 18 -18
36 -17 12 -30 27 -30 34 0 8 4 7 10 -3 6 -9 10 -10 10 -3 0 6 -5 15 -10 18 -6
4 -7 12 -3 18 4 7 -2 5 -12 -3 -17 -14 -18 -14 -7 6 12 22 7 34 -12 34 -6 0
-4 -5 4 -10 8 -5 10 -10 4 -10 -6 0 -18 8 -25 17 -10 11 -10 14 -1 9 6 -4 12
-2 12 3 0 6 -7 11 -15 11 -8 0 -15 4 -15 10 0 5 8 6 18 3 16 -7 16 -6 -1 11
-9 10 -14 22 -11 28 4 7 2 8 -5 4 -6 -4 -8 -12 -5 -18 4 -7 2 -8 -4 -4 -6 4
-9 13 -6 20 3 8 0 17 -7 22 -8 5 -10 3 -4 -6 5 -8 4 -11 -3 -6 -6 4 -9 13 -5
21 3 8 0 15 -6 15 -6 0 -11 7 -11 16 0 9 -8 23 -17 31 -10 8 -13 12 -7 9 6 -3
11 1 11 9 0 8 -3 12 -7 10 -4 -2 -16 3 -26 11 -10 9 -13 13 -6 9 6 -3 12 -2
12 4 0 5 -6 12 -12 14 -10 4 -9 8 2 17 12 9 11 10 -7 5 -18 -5 -22 -3 -17 9 4
9 1 16 -6 16 -7 0 -10 7 -6 16 4 11 2 15 -8 11 -9 -4 -13 0 -11 11 1 9 -7 22
-19 29 -11 7 -16 12 -10 13 6 0 11 7 11 15 0 11 -4 12 -14 3 -11 -9 -12 -7 -7
7 5 13 4 16 -4 11 -8 -5 -10 -2 -6 8 4 11 0 16 -12 16 -16 0 -17 2 -4 10 8 5
11 10 5 10 -5 0 -19 13 -30 28 -12 17 -13 22 -4 15 13 -10 16 -10 16 2 0 7 -3
14 -6 13 -20 -2 -31 4 -31 15 0 8 -9 22 -20 32 -11 10 -18 20 -15 23 3 3 0 10
-5 17 -5 6 -11 21 -13 33 -2 12 -7 25 -12 29 -4 5 -5 3 -1 -4 3 -6 1 -15 -6
-19 -7 -4 -10 -4 -6 1 4 4 0 22 -9 39 -13 26 -14 29 -1 19 12 -10 15 -10 15 2
0 7 -3 14 -6 13 -3 0 -15 0 -26 1 -15 1 -17 3 -7 10 11 7 11 9 -2 14 -8 3 -20
15 -26 26 -9 18 -8 20 7 15 10 -3 7 1 -6 9 -18 11 -20 16 -10 20 10 4 8 6 -5
6 -11 1 -17 4 -13 7 3 3 -7 17 -24 31 -16 14 -26 29 -23 34 3 5 10 7 15 3 5
-3 7 -9 4 -14 -3 -4 3 -14 13 -21 15 -13 16 -12 3 3 -7 10 -10 18 -6 18 4 0 2
6 -4 13 -6 8 -7 17 -3 21 4 4 2 7 -3 6 -25 -5 -33 1 -28 22 5 22 5 22 -9 4
-13 -17 -14 -16 -12 14 1 22 -2 30 -11 26 -13 -5 -30 22 -20 32 3 3 5 0 5 -6
0 -7 5 -12 12 -12 6 0 3 9 -7 20 -14 16 -20 17 -27 8 -5 -9 -8 -10 -8 -1 0 6
4 15 10 18 6 3 -1 17 -15 31 -14 14 -25 32 -25 40 0 8 -7 17 -16 21 -9 3 -14
13 -11 24 3 11 1 22 -4 25 -5 3 -7 9 -4 14 3 5 -4 7 -15 5 -11 -2 -20 0 -20 6
0 5 6 9 13 9 9 0 8 3 -2 9 -8 5 -10 14 -5 22 6 12 5 12 -8 1 -14 -11 -16 -10
-11 6 3 13 -3 25 -17 35 -14 10 -20 22 -17 31 4 10 1 16 -9 16 -11 0 -14 6 -9
23 5 17 4 19 -4 7 -9 -12 -11 -11 -11 8 0 14 -6 22 -17 22 -15 0 -16 2 -3 10
13 8 13 10 -1 10 -9 0 -20 7 -23 16 -6 15 -4 15 11 3 15 -11 15 -10 -1 9 -11
12 -15 22 -10 22 5 1 -2 7 -16 15 -14 8 -19 14 -12 15 6 0 12 5 12 11 0 5 -4
8 -9 5 -4 -3 -19 6 -32 21 -13 14 -18 23 -11 19 6 -4 12 -2 12 3 0 6 -5 11
-11 11 -5 0 -9 8 -8 18 3 31 -1 35 -18 21 -11 -10 -14 -10 -9 -1 4 6 3 12 -2
12 -5 0 -12 9 -15 19 -3 15 -1 18 12 15 9 -3 6 1 -7 8 -18 11 -20 16 -10 27
11 12 10 13 -5 8 -13 -5 -22 2 -34 28 -9 19 -20 35 -25 35 -4 0 -8 5 -8 11 0
8 4 8 14 0 10 -8 16 -9 21 -1 4 6 3 10 -2 9 -19 -5 -41 13 -36 28 4 9 2 14 -3
10 -6 -3 -16 4 -24 16 -11 19 -11 21 1 12 9 -6 8 -3 -1 5 -9 9 -14 22 -12 29
3 9 0 11 -8 6 -10 -6 -12 -4 -7 9 4 10 1 19 -7 22 -8 3 -17 12 -20 20 -3 9 -1
12 4 9 6 -3 10 1 10 10 0 10 -5 14 -12 9 -10 -5 -10 -3 0 7 11 12 14 12 23 -1
9 -12 10 -12 5 4 -4 10 -1 25 5 32 6 7 7 19 3 26 -6 10 -5 11 7 1 16 -13 16
-14 21 32 1 9 7 14 15 11 8 -3 11 -1 8 4 -3 6 -2 10 4 10 6 0 8 7 5 15 -4 10
0 15 12 15 16 0 16 1 -2 14 -19 14 -19 14 1 13 13 -1 20 4 19 16 -1 9 2 17 8
17 5 0 7 4 4 9 -6 10 18 34 26 26 3 -3 4 6 2 20 -2 22 0 24 12 14 12 -10 13
-9 8 6 -5 11 -4 16 3 12 5 -3 10 -1 11 6 4 45 8 57 19 57 7 0 10 -7 7 -17 -5
-14 -4 -15 4 -4 5 8 9 24 7 37 -1 13 1 24 5 24 4 0 7 8 6 18 -1 11 5 16 16 14
12 -2 16 3 13 17 -2 12 1 23 6 26 5 4 7 10 4 14 -2 5 5 17 18 27 21 19 21 19
7 -1 -14 -18 -14 -19 1 -7 11 8 15 21 11 35 -5 19 -3 20 10 9 14 -11 16 -10
11 9 -5 19 -3 21 13 16 18 -7 18 -6 -1 9 -20 16 -20 16 3 11 15 -3 20 -2 15 6
-14 22 -11 36 5 29 15 -5 15 -4 3 11 -12 15 -12 17 4 10 14 -5 17 -3 12 10 -3
9 -3 16 1 16 19 -3 25 2 12 11 -13 8 -13 11 -1 22 8 7 11 8 8 2 -3 -6 0 -11 7
-11 8 0 12 7 8 15 -3 9 -1 13 5 9 7 -5 9 0 6 13 -3 12 0 20 7 20 7 0 10 7 6
15 -3 8 0 14 7 12 7 -1 11 7 10 20 -2 14 2 22 10 20 6 -1 11 4 10 11 -2 6 2
12 7 12 6 0 10 -5 10 -12 0 -6 3 -8 6 -5 4 4 1 13 -6 22 -10 12 -10 15 4 15
14 0 15 4 6 21 -11 19 -10 20 10 9 20 -11 21 -10 9 12 -11 20 -11 22 4 10 13
-11 15 -10 13 12 -2 15 1 26 6 26 5 0 7 4 3 9 -3 5 0 13 6 17 8 5 9 3 4 -7 -8
-12 -6 -12 8 0 20 16 23 35 5 26 -7 -4 -5 0 4 8 12 9 14 17 7 24 -7 7 -3 10
14 8 25 -3 29 7 13 35 -5 8 -6 12 -1 8 10 -9 35 16 35 36 0 9 4 16 9 16 5 0
11 9 14 21 4 13 10 18 17 14 9 -5 8 0 -1 16 -11 21 -11 23 4 11 13 -11 15 -10
13 13 -2 18 4 32 22 45 14 12 19 20 11 20 -12 0 -12 2 0 9 8 5 10 14 5 22 -6
12 -5 11 9 0 15 -12 17 -12 12 0 -3 8 2 23 10 34 15 19 16 19 5 -5 -10 -24
-10 -24 4 -6 13 16 13 22 3 35 -10 12 -9 13 1 7 9 -5 12 -3 11 5 -4 20 23 59
41 60 10 0 11 2 3 6 -10 3 -10 7 0 18 7 7 17 10 22 7 6 -3 4 1 -3 10 -10 13
-10 18 -1 24 8 5 9 3 4 -6 -6 -9 -4 -11 4 -6 7 5 10 14 7 22 -3 8 1 17 9 20 8
4 12 11 8 17 -4 7 0 8 12 3 15 -5 16 -4 5 9 -10 12 -9 15 6 15 16 0 17 2 4 10
-10 6 -11 10 -2 10 6 0 12 8 12 18 0 15 2 15 11 2 9 -12 10 -11 6 7 -4 19 14
39 34 35 3 0 5 16 5 38 -1 21 2 36 6 34 3 -2 14 3 23 12 13 14 14 19 3 25 -11
8 -6 12 12 11 3 0 16 16 28 36 l23 37 -27 -30 c-14 -16 -23 -23 -19 -15 5 8
17 25 28 37 10 12 17 25 14 30 -7 11 19 34 29 25 4 -4 4 1 0 12 -5 14 -2 17 9
12 16 -6 16 14 0 26 -6 5 -3 8 7 8 9 0 20 5 24 12 5 7 3 8 -6 3 -9 -5 -11 -4
-6 3 4 7 14 12 22 12 8 0 12 5 9 10 -4 6 -11 7 -17 4 -7 -5 -8 -2 -4 5 5 7 15
10 23 6 14 -5 14 -3 2 12 -12 14 -12 16 0 8 11 -6 13 -4 7 10 -6 16 -4 16 11
4 11 -9 14 -10 9 -1 -4 7 -2 12 6 13 10 0 10 2 1 6 -7 2 -13 9 -13 15 0 6 7 7
16 4 15 -6 15 -4 3 11 -12 14 -12 16 0 8 11 -6 13 -4 8 9 -4 10 -3 15 3 11 9
-6 15 9 11 29 -1 5 4 4 12 -2 12 -10 14 -7 11 15 -2 16 -1 22 2 15 8 -18 24
-4 17 15 -5 12 -2 15 10 10 10 -4 17 -1 17 6 0 7 5 4 11 -5 5 -9 16 -15 24
-12 8 4 12 10 9 15 -3 5 2 6 10 3 9 -3 13 -10 10 -15 -3 -5 2 -6 11 -3 13 5
13 9 3 22 -11 13 -11 14 2 6 8 -5 31 -9 50 -10z m3025 -514 c3 -6 -1 -7 -9 -4
-18 7 -21 14 -7 14 6 0 13 -4 16 -10z m-3485 -20 c-6 -11 -13 -20 -16 -20 -2
0 0 9 6 20 6 11 13 20 16 20 2 0 0 -9 -6 -20z m-602 -2385 c-3 -3 -9 2 -12 12
-6 14 -5 15 5 6 7 -7 10 -15 7 -18z m4092 -548 c0 -8 -7 -14 -15 -14 -11 0
-12 4 -4 14 6 7 13 13 15 13 2 0 4 -6 4 -13z m193 -162 c-3 -9 -8 -14 -10 -11
-3 3 -2 9 2 15 9 16 15 13 8 -4z m-3486 -661 c-3 -3 -12 -4 -19 -1 -8 3 -5 6
6 6 11 1 17 -2 13 -5z m289 -196 c4 -7 4 -10 -1 -6 -4 4 -14 3 -22 -3 -13 -11
-19 2 -6 14 10 11 21 8 29 -5z m240 0 c4 -7 4 -10 -1 -6 -4 4 -14 3 -22 -3
-13 -11 -19 2 -6 14 10 11 21 8 29 -5z m240 0 c4 -7 4 -10 -1 -6 -4 4 -14 3
-22 -3 -13 -11 -19 2 -6 14 10 11 21 8 29 -5z m240 0 c4 -7 4 -10 -1 -6 -4 4
-14 3 -22 -3 -13 -11 -19 2 -6 14 10 11 21 8 29 -5z m240 0 c4 -7 4 -10 -1 -6
-4 4 -14 3 -22 -3 -13 -11 -19 2 -6 14 10 11 21 8 29 -5z m240 0 c4 -7 4 -10
-1 -6 -4 4 -14 3 -22 -3 -13 -11 -19 2 -6 14 10 11 21 8 29 -5z m240 0 c4 -7
4 -10 -1 -6 -4 4 -14 3 -22 -3 -13 -11 -19 2 -6 14 10 11 21 8 29 -5z m240 0
c4 -7 4 -10 -1 -6 -4 4 -14 3 -22 -3 -13 -11 -19 2 -6 14 10 11 21 8 29 -5z
m240 0 c4 -7 4 -10 -1 -6 -4 4 -14 3 -22 -3 -13 -11 -19 2 -6 14 10 11 21 8
29 -5z m240 0 c4 -7 4 -10 -1 -6 -4 4 -14 3 -22 -3 -13 -11 -19 2 -6 14 10 11
21 8 29 -5z m155 -5 c13 -16 12 -17 -3 -4 -10 7 -18 15 -18 17 0 8 8 3 21 -13z
m-2277 -1 c3 -5 -1 -9 -9 -9 -8 0 -12 4 -9 9 3 4 7 8 9 8 2 0 6 -4 9 -8z m240
0 c3 -5 -1 -9 -9 -9 -8 0 -12 4 -9 9 3 4 7 8 9 8 2 0 6 -4 9 -8z m240 0 c3 -5
-1 -9 -9 -9 -8 0 -12 4 -9 9 3 4 7 8 9 8 2 0 6 -4 9 -8z m240 0 c3 -5 -1 -9
-9 -9 -8 0 -12 4 -9 9 3 4 7 8 9 8 2 0 6 -4 9 -8z m240 0 c3 -5 -1 -9 -9 -9
-8 0 -12 4 -9 9 3 4 7 8 9 8 2 0 6 -4 9 -8z m240 0 c3 -5 -1 -9 -9 -9 -8 0
-12 4 -9 9 3 4 7 8 9 8 2 0 6 -4 9 -8z m240 0 c3 -5 -1 -9 -9 -9 -8 0 -12 4
-9 9 3 4 7 8 9 8 2 0 6 -4 9 -8z m240 0 c3 -5 -1 -9 -9 -9 -8 0 -12 4 -9 9 3
4 7 8 9 8 2 0 6 -4 9 -8z m240 0 c3 -5 -1 -9 -9 -9 -8 0 -12 4 -9 9 3 4 7 8 9
8 2 0 6 -4 9 -8z m-2040 -240 c3 -5 -1 -9 -9 -9 -8 0 -12 4 -9 9 3 4 7 8 9 8
2 0 6 -4 9 -8z m400 0 c3 -5 -1 -9 -9 -9 -8 0 -12 4 -9 9 3 4 7 8 9 8 2 0 6
-4 9 -8z m160 0 c3 -5 -1 -9 -9 -9 -8 0 -12 4 -9 9 3 4 7 8 9 8 2 0 6 -4 9 -8z
m400 0 c3 -5 -1 -9 -9 -9 -8 0 -12 4 -9 9 3 4 7 8 9 8 2 0 6 -4 9 -8z m400 0
c3 -5 -1 -9 -9 -9 -8 0 -12 4 -9 9 3 4 7 8 9 8 2 0 6 -4 9 -8z m160 0 c3 -5
-1 -9 -9 -9 -8 0 -12 4 -9 9 3 4 7 8 9 8 2 0 6 -4 9 -8z m400 0 c3 -5 -1 -9
-9 -9 -8 0 -12 4 -9 9 3 4 7 8 9 8 2 0 6 -4 9 -8z m400 0 c3 -5 -1 -9 -9 -9
-8 0 -12 4 -9 9 3 4 7 8 9 8 2 0 6 -4 9 -8z m160 0 c3 -5 -1 -9 -9 -9 -8 0
-12 4 -9 9 3 4 7 8 9 8 2 0 6 -4 9 -8z"/>
<path d="M1716 5092 c-3 -5 1 -9 9 -9 8 0 12 4 9 9 -3 4 -7 8 -9 8 -2 0 -6 -4
-9 -8z"/>
<path d="M2016 5092 c-3 -5 1 -9 9 -9 8 0 12 4 9 9 -3 4 -7 8 -9 8 -2 0 -6 -4
-9 -8z"/>
<path d="M2176 5092 c-3 -5 1 -9 9 -9 8 0 12 4 9 9 -3 4 -7 8 -9 8 -2 0 -6 -4
-9 -8z"/>
<path d="M2336 5092 c-3 -5 1 -9 9 -9 8 0 12 4 9 9 -3 4 -7 8 -9 8 -2 0 -6 -4
-9 -8z"/>
<path d="M2496 5092 c-3 -5 1 -9 9 -9 8 0 12 4 9 9 -3 4 -7 8 -9 8 -2 0 -6 -4
-9 -8z"/>
<path d="M2676 5092 c-3 -5 1 -9 9 -9 8 0 12 4 9 9 -3 4 -7 8 -9 8 -2 0 -6 -4
-9 -8z"/>
<path d="M2916 5092 c-3 -5 1 -9 9 -9 8 0 12 4 9 9 -3 4 -7 8 -9 8 -2 0 -6 -4
-9 -8z"/>
<path d="M3156 5092 c-3 -5 1 -9 9 -9 8 0 12 4 9 9 -3 4 -7 8 -9 8 -2 0 -6 -4
-9 -8z"/>
<path d="M3396 5092 c-3 -5 1 -9 9 -9 8 0 12 4 9 9 -3 4 -7 8 -9 8 -2 0 -6 -4
-9 -8z"/>
<path d="M3636 5092 c-3 -5 1 -9 9 -9 8 0 12 4 9 9 -3 4 -7 8 -9 8 -2 0 -6 -4
-9 -8z"/>
<path d="M3936 5092 c-3 -5 1 -9 9 -9 8 0 12 4 9 9 -3 4 -7 8 -9 8 -2 0 -6 -4
-9 -8z"/>
<path d="M1370 4769 c0 -5 5 -7 10 -4 6 3 10 8 10 11 0 2 -4 4 -10 4 -5 0 -10
-5 -10 -11z"/>
<path d="M2565 4504 c-11 -2 -45 -9 -75 -15 -82 -17 -205 -66 -297 -121 -364
-215 -620 -560 -712 -958 -57 -248 -41 -451 45 -585 39 -61 139 -166 150 -157
5 4 2 -2 -6 -13 -8 -11 -10 -17 -6 -13 5 4 15 3 23 -4 11 -8 12 -7 7 6 -4 12
-2 15 9 10 9 -3 13 -14 10 -27 -3 -16 -2 -18 5 -8 7 9 12 10 16 2 4 -6 11 -9
16 -6 5 3 11 1 15 -5 4 -6 11 -8 16 -4 5 3 8 2 7 -3 -2 -4 1 -9 5 -10 4 -1 20
-9 34 -18 21 -14 27 -15 34 -4 7 11 9 11 9 1 0 -7 5 -10 10 -7 6 3 13 -1 16
-10 5 -13 9 -14 15 -4 5 9 11 10 21 2 9 -7 21 -8 38 -1 33 14 143 16 152 3 5
-6 8 -6 8 2 0 7 10 10 28 7 19 -3 23 -2 12 5 -8 5 -19 7 -25 3 -5 -3 -4 2 4
11 14 17 29 12 54 -18 5 -6 6 -2 3 9 -5 13 -2 17 8 13 11 -4 13 -1 9 11 -6 14
-4 15 9 4 13 -10 17 -10 21 1 3 9 18 13 41 11 34 -3 41 3 37 29 -1 5 3 6 9 2
6 -3 8 -11 5 -16 -4 -5 -2 -9 4 -9 5 0 13 5 17 11 4 7 9 8 13 1 4 -6 12 -4 21
6 13 14 12 15 -3 9 -9 -3 -19 -2 -22 2 -3 5 9 8 26 7 18 -1 33 3 36 11 3 7 17
13 30 13 14 0 32 8 40 18 8 9 12 11 8 5 -9 -19 6 -16 22 5 8 9 11 11 8 3 -5
-9 1 -8 19 4 14 10 26 24 26 32 0 8 5 11 10 8 6 -3 10 -1 10 5 0 7 7 7 23 -1
20 -11 21 -11 8 4 -16 20 -2 23 19 4 8 -6 6 -2 -5 11 -14 17 -16 23 -5 20 8
-2 20 -10 27 -18 10 -13 12 -11 8 9 -2 13 -2 21 2 18 3 -3 13 2 22 11 9 10 13
13 9 8 -5 -6 -8 -14 -8 -18 0 -9 27 17 70 65 22 25 22 27 5 22 -20 -7 -20 -6
-1 9 11 9 14 16 8 16 -7 0 -3 9 9 21 15 15 18 24 10 32 -7 7 -5 14 7 24 16 12
16 13 -1 7 -16 -6 -16 -3 3 29 l21 36 -22 11 c-14 8 -19 8 -15 1 7 -10 -6 -16
-27 -12 -5 1 -6 -3 -2 -9 3 -5 -1 -10 -10 -10 -9 0 -14 -4 -10 -9 3 -5 0 -13
-6 -17 -7 -4 -9 -3 -5 4 3 6 2 13 -4 17 -6 4 -8 11 -4 16 3 5 7 22 10 37 3 15
7 35 10 45 3 9 3 17 0 17 -2 0 -44 -26 -93 -58 -263 -174 -442 -246 -597 -241
-68 2 -109 13 -147 40 -14 10 -29 16 -31 13 -3 -2 -3 7 -1 21 4 19 1 25 -13
25 -18 1 -18 1 -1 14 9 7 17 17 17 22 0 4 -5 3 -12 -4 -17 -17 -33 -15 -19 2
8 9 8 16 2 20 -6 4 -9 23 -7 44 2 20 -2 43 -8 51 -9 12 -8 14 5 9 9 -4 16 -1
16 7 0 7 -7 11 -14 8 -10 -4 -13 1 -9 21 3 16 0 26 -7 26 -7 1 -1 8 13 16 14
8 17 13 8 10 -12 -3 -18 0 -18 10 0 9 5 12 12 8 6 -4 8 -3 4 4 -3 5 0 13 6 16
7 3 2 3 -12 -1 -22 -5 -23 -4 -11 10 7 9 17 14 22 11 5 -3 9 0 9 5 0 6 -6 11
-14 11 -8 0 -18 5 -22 12 -5 8 -2 9 12 4 10 -4 15 -4 11 0 -4 4 -1 14 6 22 7
10 8 13 1 9 -7 -4 -18 1 -25 10 -8 9 -9 14 -2 10 14 -9 43 1 43 15 0 5 -4 7
-9 4 -5 -3 -8 5 -7 18 0 13 4 22 7 20 4 -2 9 5 12 16 3 11 1 20 -4 20 -5 0 -9
-5 -9 -12 0 -6 -3 -9 -6 -5 -3 3 -2 12 2 19 5 7 9 19 11 27 1 8 12 24 25 35
13 12 18 17 12 13 -16 -11 -15 34 1 46 6 4 5 10 -5 17 -12 8 -10 10 10 11 14
0 19 3 12 6 -10 4 -9 9 5 20 10 8 12 12 6 8 -7 -3 -13 -2 -13 3 0 6 7 12 15
16 8 3 15 13 15 21 0 9 4 13 10 10 6 -3 7 1 4 9 -3 9 -11 13 -17 9 -6 -4 -7
-1 -3 6 5 7 14 10 21 7 14 -5 15 11 1 33 -7 10 -6 12 4 6 10 -6 12 -3 7 11 -7
18 -7 18 8 0 14 -19 15 -18 11 12 -2 17 1 30 7 29 5 -1 12 4 15 12 3 9 0 11
-8 6 -8 -5 -11 -4 -6 3 4 6 13 9 20 6 8 -3 17 0 22 7 5 8 3 10 -6 4 -10 -6
-11 -4 -4 6 9 14 10 19 13 39 0 6 5 10 10 10 5 0 7 -10 4 -22 -3 -13 -3 -21 0
-18 3 3 8 17 10 30 12 60 28 73 57 48 12 -11 12 -10 0 5 -12 17 -11 21 10 39
14 11 18 16 10 12 -12 -6 -13 -5 -3 8 7 8 9 19 5 24 -4 4 1 2 11 -5 15 -12 17
-11 17 4 0 12 5 15 16 11 15 -6 15 -4 3 10 -13 16 -12 16 8 6 16 -9 24 -9 29
0 4 6 3 8 -4 4 -6 -3 -13 -2 -17 4 -3 5 -1 10 5 10 6 0 8 5 5 10 -3 6 -1 10 5
10 6 0 9 4 6 9 -4 5 2 7 13 4 18 -5 71 40 71 62 0 5 5 2 10 -7 9 -15 13 -15
37 -3 15 8 31 11 36 8 6 -3 7 -1 3 5 -4 6 -13 9 -20 6 -8 -3 -17 -1 -20 5 -4
6 7 8 29 6 24 -2 33 0 28 8 -4 7 0 6 10 -1 13 -12 18 -10 33 7 10 11 21 18 26
15 4 -3 17 0 28 6 12 6 20 7 20 1 0 -5 -6 -12 -12 -14 -8 -4 -9 -6 -2 -6 6 -1
17 6 24 14 8 10 17 12 29 5 10 -5 29 -7 44 -6 14 2 26 0 25 -3 -1 -3 4 -19 11
-36 18 -44 39 -140 45 -207 3 -42 13 -44 47 -12 24 22 29 24 21 8 -8 -15 -8
-24 1 -33 8 -8 8 -14 2 -19 -15 -10 -12 -38 4 -34 9 2 11 -3 7 -13 -3 -9 -2
-13 4 -10 18 11 12 38 -7 30 -14 -5 -15 -3 -6 6 15 15 33 3 34 -24 1 -16 3
-14 8 8 4 20 12 30 24 29 9 -1 17 5 17 12 0 8 7 17 15 20 8 4 13 10 10 14 -3
5 0 12 6 16 8 4 9 3 5 -4 -13 -21 2 -13 33 19 17 17 31 35 31 40 0 6 5 7 11 4
6 -4 19 2 30 14 11 12 26 21 34 21 8 0 15 4 15 10 0 5 -8 6 -17 3 -10 -4 -3 6
14 21 33 28 35 39 16 86 -12 29 -7 41 8 20 9 -13 10 -12 6 2 -3 9 -1 19 6 22
7 3 0 3 -15 1 -19 -2 -25 0 -22 10 3 8 13 11 22 7 14 -5 15 -4 2 10 -11 11
-19 13 -28 6 -9 -8 -11 -7 -7 5 4 8 2 18 -4 22 -6 3 -11 14 -11 24 0 18 -39
61 -56 61 -5 0 -18 13 -29 30 -21 32 -96 77 -160 98 -42 13 -186 24 -220 16z
m440 -174 c10 -11 16 -20 13 -20 -3 0 -13 9 -23 20 -10 11 -16 20 -13 20 3 0
13 -9 23 -20z m-542 -135 c-3 -9 -8 -14 -10 -11 -3 3 -2 9 2 15 9 16 15 13 8
-4z m-613 -1105 c0 -5 -2 -10 -4 -10 -3 0 -8 5 -11 10 -3 6 -1 10 4 10 6 0 11
-4 11 -10z m974 -33 c-3 -8 -12 -14 -21 -14 -13 0 -13 2 3 14 10 7 19 13 21
13 1 0 0 -6 -3 -13z m-883 -494 c13 -17 13 -17 -6 -3 -11 8 -22 16 -24 17 -2
2 0 3 6 3 6 0 17 -8 24 -17z"/>
<path d="M1096 4301 c-14 -15 -15 -21 -4 -27 7 -4 10 -3 5 1 -4 5 0 17 10 27
9 10 14 18 11 18 -3 0 -13 -9 -22 -19z"/>
<path d="M2576 4197 c3 -10 9 -15 12 -12 3 3 0 11 -7 18 -10 9 -11 8 -5 -6z"/>
<path d="M2323 4124 c-15 -16 -16 -24 -4 -24 8 0 24 30 19 35 -2 2 -9 -3 -15
-11z"/>
<path d="M3070 4079 c0 -5 5 -7 10 -4 6 3 10 8 10 11 0 2 -4 4 -10 4 -5 0 -10
-5 -10 -11z"/>
<path d="M3075 4050 c3 -5 8 -10 11 -10 2 0 4 5 4 10 0 6 -5 10 -11 10 -5 0
-7 -4 -4 -10z"/>
<path d="M2953 3965 c-3 -9 -3 -18 -1 -21 3 -3 8 4 11 16 6 23 -1 27 -10 5z"/>
<path d="M3680 3195 c-304 -70 -608 -289 -809 -585 -215 -317 -309 -736 -221
-988 22 -63 59 -126 94 -164 14 -15 26 -32 26 -38 0 -6 4 -9 9 -6 5 3 12 -1
15 -10 3 -8 11 -12 17 -8 7 4 10 3 7 -2 -3 -5 0 -15 8 -22 11 -10 14 -10 14 0
0 9 3 9 10 -2 6 -9 5 -17 -3 -23 -8 -6 -6 -7 6 -3 9 3 17 1 17 -5 0 -6 5 -7
10 -4 9 5 14 -6 12 -26 -1 -3 5 -6 13 -6 8 0 12 4 9 9 -8 13 6 9 21 -6 8 -7
11 -17 7 -21 -4 -5 -1 -5 6 -1 18 11 54 -3 45 -17 -4 -7 1 -6 10 2 11 9 17 10
17 2 0 -6 14 -11 30 -11 17 0 30 5 30 11 0 5 5 7 10 4 6 -4 8 -11 5 -16 -3 -5
2 -6 11 -2 12 4 15 3 10 -5 -5 -8 -2 -10 8 -6 9 3 16 11 16 16 0 6 6 6 14 -1
11 -10 15 -8 19 6 4 17 5 17 6 0 1 -11 8 -17 19 -15 10 2 16 -2 14 -10 -1 -8
2 -11 8 -7 6 3 8 10 6 14 -3 4 4 12 14 19 12 7 21 8 25 2 3 -6 11 -10 17 -10
6 0 6 6 -2 15 -11 13 -10 14 4 9 9 -3 16 -11 16 -16 0 -7 4 -7 13 -1 16 13 58
23 52 13 -3 -5 8 -3 24 3 17 6 27 16 23 21 -3 6 2 5 11 -3 11 -9 17 -10 17 -2
0 6 5 11 11 11 5 0 8 -4 4 -9 -3 -5 0 -13 6 -17 7 -4 9 -3 5 4 -3 6 -2 13 4
17 6 4 7 11 4 17 -5 8 -1 9 10 5 14 -6 17 -3 12 10 -6 17 -5 17 8 0 13 -17 15
-17 34 4 l21 21 -5 -23 -5 -24 14 24 c11 18 16 20 20 10 4 -11 6 -11 6 -1 1 7
5 11 10 7 5 -3 13 0 17 6 4 7 3 9 -4 5 -6 -3 -13 -3 -16 2 -2 4 4 9 15 9 10 1
19 -4 19 -10 1 -7 10 -1 21 13 12 14 24 24 28 23 12 -5 41 9 41 19 0 6 3 9 6
5 3 -3 15 3 26 13 11 10 29 17 40 15 14 -3 18 0 14 10 -3 9 0 12 9 9 18 -7 67
26 61 42 -3 8 2 11 15 9 10 -2 19 1 19 7 0 6 11 21 24 33 14 13 22 26 19 29
-4 3 -2 6 4 6 6 0 10 16 9 35 -1 22 3 34 10 31 6 -2 11 2 11 10 0 7 -5 10 -11
7 -6 -3 -5 0 2 8 14 15 17 33 4 25 -5 -3 -9 1 -9 9 0 8 3 13 6 11 3 -2 13 3
21 12 13 14 12 15 -1 10 -12 -5 -15 0 -13 19 1 14 -1 22 -4 18 -4 -4 -7 -12
-7 -18 -1 -7 -6 -11 -13 -10 -7 2 -12 -2 -12 -8 0 -5 -4 -7 -10 -4 -5 3 -10 1
-10 -5 0 -6 -4 -9 -9 -6 -5 4 -12 0 -14 -6 -3 -7 -3 3 0 22 3 19 9 37 12 40 3
3 7 18 9 34 l3 29 -30 -19 c-17 -11 -75 -47 -128 -81 -118 -75 -255 -144 -343
-173 -105 -35 -320 -34 -320 1 0 5 -3 8 -7 8 -21 -3 -33 3 -33 17 0 8 -4 13
-8 10 -4 -2 -9 4 -9 15 -1 10 -11 32 -22 48 -15 21 -17 31 -8 40 9 9 9 16 0
30 -9 14 -8 23 3 40 14 19 13 20 -2 14 -15 -5 -16 -1 -9 33 11 58 13 114 3
108 -4 -3 -5 -10 -2 -16 4 -7 2 -8 -4 -4 -8 5 -7 17 2 44 7 20 11 44 8 52 -4
13 -3 13 10 2 11 -9 18 -10 23 -2 4 6 1 9 -7 8 -7 -2 -14 8 -16 21 -3 19 0 23
15 17 12 -4 10 0 -7 13 -21 16 -22 19 -6 18 10 -1 21 5 23 13 4 13 3 13 -7 0
-10 -13 -11 -12 -6 3 3 10 6 23 6 28 0 6 5 7 12 3 7 -5 8 -3 2 7 -11 19 -14
40 -4 34 8 -5 20 17 27 48 2 15 -1 17 -19 12 -22 -7 -22 -6 2 11 14 11 28 18
33 16 11 -3 9 12 -4 25 -7 7 -5 15 6 27 9 9 13 16 9 16 -4 0 3 11 15 24 15 16
19 26 12 31 -17 10 -1 27 20 22 13 -3 17 -1 12 6 -14 22 -11 36 5 29 15 -5 16
-4 2 13 -9 11 -10 16 -2 11 7 -4 12 -1 12 9 0 9 9 25 20 37 10 12 17 25 14 30
-3 5 0 7 6 6 7 -2 14 5 15 15 2 11 17 31 34 46 30 27 43 49 20 36 -6 -4 -5 2
2 13 7 12 17 18 22 15 5 -3 3 -10 -4 -15 -11 -8 -11 -9 1 -5 8 2 15 13 14 24
-1 12 5 20 14 19 8 0 16 7 18 17 1 11 6 22 10 25 4 4 4 -1 1 -10 -4 -10 -2
-18 3 -18 6 0 10 10 10 23 0 18 2 19 10 7 9 -13 10 -13 10 1 0 8 18 23 40 33
22 10 40 22 40 27 0 6 5 7 10 4 6 -3 10 -1 10 4 0 6 -5 11 -12 11 -6 0 -8 3
-5 6 4 4 14 1 24 -7 11 -9 14 -10 9 -1 -4 7 -1 12 8 12 9 0 16 5 16 12 0 6 6
3 14 -8 14 -19 14 -19 13 1 -1 12 3 19 12 17 7 -1 19 2 27 9 8 6 21 9 29 5 8
-3 15 0 15 7 0 8 4 6 10 -3 7 -12 10 -12 10 -1 0 8 6 11 16 7 8 -3 13 -2 10 3
-8 13 23 22 41 12 11 -6 12 -10 4 -15 -6 -4 -11 -2 -11 3 0 6 -5 11 -11 11 -8
0 -8 -5 1 -15 9 -11 16 -12 25 -5 6 5 16 6 20 2 5 -4 5 -2 1 5 -3 6 -2 14 3
17 5 3 11 -1 15 -9 3 -8 15 -15 27 -15 18 0 20 -2 9 -16 -11 -12 -11 -15 0
-12 18 4 41 -85 54 -205 4 -40 13 -43 41 -17 l25 23 0 -22 c0 -14 -4 -20 -12
-15 -7 4 -8 3 -4 -5 6 -9 11 -9 21 -1 11 9 12 7 8 -9 -3 -12 -9 -18 -14 -15
-5 3 -6 -2 -3 -10 3 -9 10 -13 15 -10 5 3 9 -5 9 -17 0 -25 10 -20 15 8 2 10
4 20 4 22 1 2 11 -4 24 -15 12 -10 16 -12 10 -4 -16 18 -17 34 -1 24 7 -5 9
-2 5 8 -4 12 0 15 17 14 13 -2 23 3 23 10 0 7 -5 10 -10 7 -6 -3 -7 -2 -4 4 4
6 18 9 32 8 14 -2 25 1 25 7 0 6 -8 7 -17 3 -12 -4 -15 -3 -8 4 6 5 17 11 25
13 21 4 72 57 66 67 -3 4 5 6 19 4 21 -4 23 -2 18 18 -3 17 -2 20 5 11 7 -11
10 -11 16 3 3 9 10 14 15 11 11 -7 9 13 -3 33 -6 9 -5 12 1 8 6 -4 14 0 17 8
4 10 1 15 -9 13 -7 -2 -13 2 -12 7 1 6 4 9 7 8 3 -1 6 7 6 17 0 11 -5 16 -15
12 -9 -3 -12 -1 -7 6 4 7 3 12 -3 12 -5 0 -8 10 -6 21 4 22 -17 63 -28 53 -3
-3 -3 5 0 18 4 18 3 20 -6 8 -9 -13 -11 -12 -11 3 0 21 -24 49 -34 40 -3 -4
-6 0 -6 8 -1 15 -89 88 -130 106 -88 40 -226 51 -330 28z m-200 -365 c0 -5 -5
-10 -11 -10 -5 0 -7 5 -4 10 3 6 8 10 11 10 2 0 4 -4 4 -10z m-405 -599 c3 -5
2 -12 -3 -15 -5 -3 -9 1 -9 9 0 17 3 19 12 6z m-67 -366 c-3 -3 -9 2 -12 12
-6 14 -5 15 5 6 7 -7 10 -15 7 -18z m12 -115 c0 -5 -2 -10 -4 -10 -3 0 -8 5
-11 10 -3 6 -1 10 4 10 6 0 11 -4 11 -10z m931 -133 c-10 -9 -11 -8 -5 6 3 10
9 15 12 12 3 -3 0 -11 -7 -18z m-83 -111 c-2 -1 -12 -8 -22 -16 -18 -14 -18
-14 -6 7 8 12 18 19 23 16 4 -3 7 -6 5 -7z"/>
<path d="M415 3110 c3 -5 8 -10 11 -10 2 0 4 5 4 10 0 6 -5 10 -11 10 -5 0 -7
-4 -4 -10z"/>
<path d="M2815 3110 c-3 -5 -1 -10 4 -10 6 0 11 5 11 10 0 6 -2 10 -4 10 -3 0
-8 -4 -11 -10z"/>
<path d="M5280 3096 c0 -2 7 -7 16 -10 8 -3 12 -2 9 4 -6 10 -25 14 -25 6z"/>
<path d="M3430 2769 c0 -5 5 -7 10 -4 6 3 10 8 10 11 0 2 -4 4 -10 4 -5 0 -10
-5 -10 -11z"/>
<path d="M2604 2728 l-19 -23 23 19 c21 18 27 26 19 26 -2 0 -12 -10 -23 -22z"/>
<path d="M5270 2626 c0 -2 7 -7 16 -10 8 -3 12 -2 9 4 -6 10 -25 14 -25 6z"/>
<path d="M1750 2600 c0 -5 5 -10 11 -10 5 0 7 5 4 10 -3 6 -8 10 -11 10 -2 0
-4 -4 -4 -10z"/>
<path d="M1796 2572 c-3 -5 1 -9 9 -9 8 0 12 4 9 9 -3 4 -7 8 -9 8 -2 0 -6 -4
-9 -8z"/>
<path d="M5245 2562 c3 -3 0 -11 -7 -19 -6 -7 -9 -15 -7 -17 2 -2 12 6 21 18
13 18 14 23 2 23 -8 0 -12 -3 -9 -5z"/>
<path d="M3226 2532 c-3 -5 1 -9 9 -9 8 0 12 4 9 9 -3 4 -7 8 -9 8 -2 0 -6 -4
-9 -8z"/>
<path d="M5135 2370 c-3 -5 -2 -10 4 -10 5 0 13 5 16 10 3 6 2 10 -4 10 -5 0
-13 -4 -16 -10z"/>
<path d="M3105 2320 c-3 -6 1 -7 9 -4 18 7 21 14 7 14 -6 0 -13 -4 -16 -10z"/>
<path d="M750 2031 c0 -6 4 -13 10 -16 6 -3 7 1 4 9 -7 18 -14 21 -14 7z"/>
<path d="M3020 1715 c0 -7 30 -13 34 -7 3 4 -4 9 -15 9 -10 1 -19 0 -19 -2z"/>
<path d="M3955 1570 c-16 -7 -17 -9 -3 -9 9 -1 20 4 23 9 7 11 7 11 -20 0z"/>
<path d="M1040 1506 c0 -2 8 -10 18 -17 15 -13 16 -12 3 4 -13 16 -21 21 -21
13z"/>
<path d="M3761 1436 c-9 -11 -9 -16 1 -22 7 -4 10 -4 6 1 -4 4 -3 14 3 22 6 7
9 13 6 13 -2 0 -10 -6 -16 -14z"/>
<path d="M4426 1143 c-6 -14 -5 -15 5 -6 7 7 10 15 7 18 -3 3 -9 -2 -12 -12z"/>
<path d="M1480 753 c0 -6 8 -17 18 -24 16 -13 16 -13 2 6 -8 11 -16 22 -17 24
-2 2 -3 0 -3 -6z"/>
</g>
</svg>
